<?xml version="1.0" encoding="UTF-8"?>
<svg xmlns="http://www.w3.org/2000/svg" xmlns:xlink="http://www.w3.org/1999/xlink" width="225.4pt" height="225.4pt" viewBox="0 0 225.4 225.4" version="1.1">
<defs>
<clipPath id="clip1">
  <path d="M 102 112 L 113 112 L 113 225.398438 L 102 225.398438 Z M 102 112 "/>
</clipPath>
<clipPath id="clip2">
  <path d="M 112 112 L 124 112 L 124 225.398438 L 112 225.398438 Z M 112 112 "/>
</clipPath>
<clipPath id="clip3">
  <path d="M 112 102 L 225.398438 102 L 225.398438 113 L 112 113 Z M 112 102 "/>
</clipPath>
<clipPath id="clip4">
  <path d="M 112 112 L 225.398438 112 L 225.398438 124 L 112 124 Z M 112 112 "/>
</clipPath>
</defs>
<g id="surface1">
<path style=" stroke:none;fill-rule:evenodd;fill:rgb(100%,100%,100%);fill-opacity:1;" d="M 163.992188 163.898438 L 123.171875 131.226563 L 112.738281 112.644531 Z M 163.992188 163.898438 "/>
<path style=" stroke:none;fill-rule:evenodd;fill:rgb(100%,100%,100%);fill-opacity:1;" d="M 102.304688 94.058594 L 63.164063 62.738281 L 61.480469 61.386719 L 112.738281 112.644531 Z M 102.304688 94.058594 "/>
<path style=" stroke:none;fill-rule:evenodd;fill:rgb(85.15625%,85.546875%,85.9375%);fill-opacity:1;" d="M 112.738281 112.644531 L 112.738281 -0.0546875 L 102.304688 94.058594 Z M 112.738281 112.644531 "/>
<path style=" stroke:none;fill-rule:evenodd;fill:rgb(85.15625%,85.546875%,85.9375%);fill-opacity:1;" d="M 102.304688 131.226563 L 112.738281 112.644531 L 61.484375 163.894531 L 61.480469 163.902344 L 64.945313 161.128906 Z M 102.304688 131.226563 "/>
<g clip-path="url(#clip1)" clip-rule="nonzero">
<path style=" stroke:none;fill-rule:evenodd;fill:rgb(100%,100%,100%);fill-opacity:1;" d="M 112.738281 225.332031 L 102.304688 131.226563 L 112.738281 112.644531 Z M 112.738281 225.332031 "/>
</g>
<g clip-path="url(#clip2)" clip-rule="nonzero">
<path style=" stroke:none;fill-rule:evenodd;fill:rgb(85.15625%,85.546875%,85.9375%);fill-opacity:1;" d="M 123.171875 131.226563 L 112.738281 112.644531 L 112.738281 225.339844 L 112.972656 223.230469 Z M 123.171875 131.226563 "/>
</g>
<path style=" stroke:none;fill-rule:evenodd;fill:rgb(85.15625%,85.546875%,85.9375%);fill-opacity:1;" d="M 123.171875 94.058594 L 163.996094 61.382813 L 163.996094 61.386719 L 112.738281 112.644531 Z M 123.171875 94.058594 "/>
<path style=" stroke:none;fill-rule:evenodd;fill:rgb(100%,100%,100%);fill-opacity:1;" d="M 112.738281 112.644531 L 112.738281 -0.046875 L 113.527344 7.058594 L 123.171875 94.058594 Z M 112.738281 112.644531 "/>
<path style=" stroke:none;fill-rule:evenodd;fill:rgb(100%,100%,100%);fill-opacity:1;" d="M 61.484375 163.894531 L 94.15625 123.078125 L 112.734375 112.644531 Z M 61.484375 163.894531 "/>
<path style=" stroke:none;fill-rule:evenodd;fill:rgb(100%,100%,100%);fill-opacity:1;" d="M 131.320313 102.207031 L 162.644531 63.074219 L 163.996094 61.386719 L 112.738281 112.644531 Z M 131.320313 102.207031 "/>
<g clip-path="url(#clip3)" clip-rule="nonzero">
<path style=" stroke:none;fill-rule:evenodd;fill:rgb(85.15625%,85.546875%,85.9375%);fill-opacity:1;" d="M 112.738281 112.644531 L 225.425781 112.644531 L 225.4375 112.640625 L 131.320313 102.207031 Z M 112.738281 112.644531 "/>
</g>
<path style=" stroke:none;fill-rule:evenodd;fill:rgb(85.15625%,85.546875%,85.9375%);fill-opacity:1;" d="M 94.15625 102.210938 L 112.738281 112.644531 L 112.738281 112.640625 L 61.484375 61.390625 L 61.476563 61.382813 L 64.253906 64.851563 Z M 94.15625 102.210938 "/>
<path style=" stroke:none;fill-rule:evenodd;fill:rgb(100%,100%,100%);fill-opacity:1;" d="M 0.046875 112.644531 L 94.152344 102.210938 L 112.738281 112.644531 Z M 0.046875 112.644531 "/>
<path style=" stroke:none;fill-rule:evenodd;fill:rgb(85.15625%,85.546875%,85.9375%);fill-opacity:1;" d="M 94.15625 123.078125 L 112.734375 112.644531 L 112.738281 112.644531 L 0.0390625 112.644531 L 2.148438 112.878906 Z M 94.15625 123.078125 "/>
<path style=" stroke:none;fill-rule:evenodd;fill:rgb(85.15625%,85.546875%,85.9375%);fill-opacity:1;" d="M 131.320313 123.078125 L 163.996094 163.902344 L 112.738281 112.644531 Z M 131.320313 123.078125 "/>
<g clip-path="url(#clip4)" clip-rule="nonzero">
<path style=" stroke:none;fill-rule:evenodd;fill:rgb(100%,100%,100%);fill-opacity:1;" d="M 112.738281 112.644531 L 225.425781 112.644531 L 218.320313 113.429688 L 131.320313 123.078125 Z M 112.738281 112.644531 "/>
</g>
</g>
</svg>
